<?xml version="1.0" standalone="no"?>
<!DOCTYPE svg PUBLIC "-//W3C//DTD SVG 20010904//EN"
 "http://www.w3.org/TR/2001/REC-SVG-20010904/DTD/svg10.dtd">
<svg version="1.0" xmlns="http://www.w3.org/2000/svg"
 width="1023.000000pt" height="1023.000000pt" viewBox="0 0 1023.000000 1023.000000"
 preserveAspectRatio="xMidYMid meet">
<metadata>
Created by potrace 1.14, written by Peter Selinger 2001-2017
</metadata>
<g transform="translate(0.000000,1023.000000) scale(0.100000,-0.100000)"
fill="#000000" stroke="none">
<path d="M5073 10215 c-53 -37 -306 -501 -393 -720 -18 -44 -33 -81 -35 -83
-2 -2 -47 19 -101 46 -55 27 -120 57 -145 66 -43 16 -49 17 -78 2 -19 -10 -33
-27 -37 -44 -3 -15 -10 -44 -16 -65 -5 -21 -11 -51 -13 -67 -2 -16 -6 -37 -9
-47 -4 -16 -13 -81 -21 -153 -2 -14 -6 -50 -10 -81 -3 -31 -8 -123 -9 -205 -2
-82 -6 -148 -9 -146 -4 1 -67 31 -139 66 -207 100 -251 107 -281 44 -14 -31
-39 -181 -55 -333 -8 -82 -9 -460 -1 -522 7 -50 9 -49 -89 -23 -112 30 -296
58 -400 61 -69 3 -96 -21 -94 -81 1 -23 6 -49 12 -60 5 -10 22 -56 36 -102 72
-227 272 -663 369 -800 25 -37 18 -45 -42 -51 -127 -14 -156 -25 -173 -67 -10
-25 -6 -39 49 -146 33 -66 85 -173 116 -239 94 -199 241 -562 232 -572 -8 -7
-187 143 -336 282 -231 216 -539 549 -717 778 -27 34 -72 44 -110 24 -34 -18
-130 -109 -160 -151 l-20 -28 -125 124 c-68 68 -153 148 -189 178 -36 30 -67
58 -70 61 -12 14 -247 186 -261 191 -35 13 -77 -19 -109 -82 -33 -65 -104
-270 -115 -332 -4 -21 -9 -38 -12 -38 -2 0 -61 25 -131 56 -146 65 -313 128
-458 173 -101 31 -148 37 -171 23 -20 -13 -35 -65 -28 -102 31 -169 119 -473
166 -578 37 -82 37 -81 -86 -113 -226 -60 -275 -85 -275 -144 0 -12 28 -66 63
-121 127 -199 211 -307 352 -452 61 -62 111 -117 113 -121 1 -4 -8 -12 -20
-18 -27 -12 -85 -60 -145 -119 -56 -54 -57 -86 -5 -140 45 -45 218 -205 277
-255 22 -19 42 -36 45 -39 3 -3 21 -17 40 -31 19 -15 46 -37 60 -49 29 -26
271 -207 349 -261 l52 -36 -48 -39 c-77 -63 -231 -225 -237 -250 -3 -12 -2
-34 4 -48 13 -36 196 -178 415 -323 39 -26 305 -165 335 -175 11 -4 -9 -29
-69 -89 -142 -142 -179 -198 -153 -234 34 -50 275 -148 510 -209 l124 -32
-104 -38 c-57 -21 -121 -46 -143 -56 -22 -10 -85 -37 -140 -60 -99 -42 -298
-139 -405 -198 -97 -53 -95 -105 7 -179 183 -134 325 -222 501 -309 l122 -61
-57 -49 c-81 -69 -355 -343 -444 -444 -207 -236 -399 -494 -399 -537 0 -13 12
-36 26 -50 24 -24 29 -25 95 -19 38 4 78 9 88 11 11 2 41 6 68 10 65 9 86 12
168 25 118 18 128 20 180 30 28 5 65 12 83 15 18 3 65 12 105 21 39 8 83 18
97 20 14 3 42 10 64 15 21 6 40 8 43 6 2 -3 -9 -36 -25 -74 -17 -37 -42 -99
-57 -138 -14 -38 -30 -78 -36 -87 -12 -23 -12 -64 1 -88 9 -17 66 -44 79 -36
3 2 33 7 66 10 33 4 74 8 90 10 17 2 55 7 85 10 99 12 168 21 230 31 64 10
268 46 293 51 l28 6 -33 -64 c-19 -34 -46 -92 -62 -128 -15 -36 -31 -74 -36
-85 -26 -58 -60 -170 -60 -194 0 -15 10 -38 21 -50 26 -28 60 -26 239 13 489
106 925 244 1305 415 50 22 93 37 97 33 3 -4 9 -34 13 -67 12 -112 54 -267
105 -390 29 -70 124 -246 151 -279 5 -6 31 -40 59 -76 90 -115 118 -140 155
-140 41 0 78 30 317 260 102 99 102 105 3 228 -148 185 -222 332 -229 454 -3
45 3 46 75 14 165 -72 570 -213 896 -311 176 -53 624 -164 694 -172 58 -7 94
12 104 55 7 35 -61 226 -135 377 -27 55 -48 100 -47 101 1 2 36 -4 77 -12 41
-8 95 -17 120 -20 24 -3 47 -7 50 -9 3 -2 30 -6 60 -10 30 -3 66 -8 80 -10 14
-2 79 -11 145 -19 276 -35 275 -35 310 -16 42 22 39 62 -11 189 -26 64 -57
138 -71 164 -13 27 -22 51 -20 54 3 2 34 -3 69 -11 34 -9 74 -18 88 -20 14 -3
70 -14 125 -25 55 -11 118 -22 140 -25 23 -4 52 -9 65 -11 14 -3 43 -8 65 -11
22 -3 65 -9 95 -14 30 -5 80 -12 110 -16 30 -3 58 -8 61 -10 3 -2 40 -6 81
-10 69 -6 78 -4 97 15 36 36 27 72 -41 168 -107 151 -269 352 -398 493 -86 95
-256 263 -384 378 -26 24 -46 46 -44 48 3 2 56 29 119 60 217 106 538 315 566
369 22 40 4 82 -46 109 -231 122 -434 217 -611 286 -58 22 -114 45 -125 49
-11 5 -31 13 -44 18 -20 8 -10 12 70 32 215 52 500 165 531 210 30 43 4 85
-139 229 l-93 92 97 47 c224 108 493 285 631 415 34 32 42 47 42 75 0 30 -12
47 -99 136 -55 56 -118 116 -140 132 -22 17 -41 33 -41 37 0 3 44 37 98 74
177 123 413 311 557 443 137 126 188 178 196 199 18 46 -14 87 -143 184 l-67
50 102 104 c147 150 261 295 371 470 48 77 57 98 54 130 -3 33 -8 42 -38 56
-30 15 -182 66 -214 72 -33 7 -131 30 -134 32 -2 1 4 16 13 33 8 17 13 31 9
31 -4 0 -2 6 4 13 25 31 132 376 158 512 20 105 20 114 9 142 -22 51 -65 56
-176 18 -41 -14 -83 -27 -94 -29 -11 -2 -33 -10 -50 -17 -16 -6 -34 -13 -40
-14 -11 -3 -138 -51 -170 -65 -11 -5 -71 -32 -134 -59 -62 -28 -117 -48 -121
-46 -6 4 -20 57 -20 75 1 14 -72 213 -98 270 -51 113 -94 129 -179 65 -189
-143 -362 -294 -510 -447 l-65 -66 -86 88 c-123 125 -156 129 -237 29 -314
-388 -655 -735 -970 -984 -65 -52 -67 -51 -36 32 80 215 177 436 292 666 49
97 89 186 89 196 0 50 -89 90 -202 91 -21 0 -38 3 -38 8 0 4 22 43 48 87 67
111 159 296 222 445 29 69 56 134 61 145 20 44 100 291 105 324 8 50 -27 83
-88 83 -45 0 -135 -9 -178 -17 -14 -3 -40 -7 -57 -10 -78 -12 -100 -16 -138
-26 -22 -6 -41 -11 -42 -10 -2 0 -21 -6 -43 -14 l-41 -15 7 93 c10 117 10 329
0 427 -12 125 -46 359 -56 385 -10 26 -38 45 -67 45 -26 0 -166 -59 -269 -114
-48 -26 -88 -45 -90 -43 -1 1 -4 68 -5 147 -2 136 -10 255 -23 325 -2 17 -8
50 -11 75 -3 25 -15 87 -26 139 -10 52 -19 96 -19 98 0 2 -14 12 -31 22 -31
19 -32 19 -88 0 -31 -11 -96 -40 -145 -65 -49 -24 -92 -41 -96 -37 -4 4 -19
37 -33 73 -14 36 -32 79 -40 95 -8 17 -32 66 -53 110 -20 44 -70 139 -109 211
-174 315 -208 353 -272 309z"/>
</g>
</svg>
